<svg width="1432" height="391" viewBox="0 0 1432 391" fill="none" xmlns="http://www.w3.org/2000/svg">
<mask id="path-1-inside-1_2498_2" fill="white">
<path d="M283.544 158.208C281.155 158.208 278.595 158.72 275.864 159.744C273.475 160.768 272.28 162.133 272.28 163.84V368.64C272.28 370.347 273.475 371.712 275.864 372.736C278.595 373.76 281.155 374.272 283.544 374.272V384H207.768V355.84C186.264 379.051 159.128 390.656 126.36 390.656C101.443 390.656 79.4267 385.707 60.312 375.808C41.5387 365.568 26.8613 351.061 16.28 332.288C6.04001 313.515 0.920013 291.669 0.920013 266.752C0.920013 242.517 6.55201 221.013 17.816 202.24C29.4213 183.125 44.7814 168.448 63.896 158.208C83.0107 147.627 103.832 142.336 126.36 142.336C159.128 142.336 186.264 154.965 207.768 180.224V148.48H283.544V158.208ZM134.04 336.384C148.035 336.384 160.493 333.312 171.416 327.168C182.68 320.683 191.384 312.32 197.528 302.08C203.672 291.499 206.744 280.235 206.744 268.288C206.744 247.808 199.917 230.912 186.264 217.6C172.952 204.288 155.544 197.632 134.04 197.632C113.219 197.632 95.9814 204.117 82.328 217.088C69.016 230.059 62.36 246.613 62.36 266.752C62.36 287.915 69.1867 304.811 82.84 317.44C96.8347 330.069 113.901 336.384 134.04 336.384ZM495.416 142.336C519.651 142.336 541.667 147.627 561.464 158.208C581.261 168.448 596.792 182.955 608.056 201.728C619.661 220.501 625.464 242.176 625.464 266.752C625.464 291.669 619.832 313.515 608.568 332.288C597.304 350.72 581.773 365.056 561.976 375.296C542.52 385.536 520.333 390.656 495.416 390.656C466.744 390.656 441.827 382.123 420.664 365.056V384H345.912V374.272C348.301 374.272 350.691 373.76 353.08 372.736C355.811 371.712 357.176 370.347 357.176 368.64V15.36C357.176 13.6534 355.811 12.288 353.08 11.264C350.691 10.24 348.301 9.72803 345.912 9.72803V0H431.928V9.72803C429.539 9.72803 426.979 10.24 424.248 11.264C421.859 12.288 420.664 13.6534 420.664 15.36V166.4C441.144 150.357 466.061 142.336 495.416 142.336ZM491.32 336.384C511.8 336.384 528.867 330.069 542.52 317.44C556.515 304.811 563.512 287.915 563.512 266.752C563.512 246.955 556.685 230.571 543.032 217.6C529.379 204.288 512.141 197.632 491.32 197.632C470.157 197.632 452.749 204.288 439.096 217.6C425.443 230.912 418.616 247.808 418.616 268.288C418.616 280.235 421.688 291.499 427.832 302.08C434.317 312.32 443.192 320.683 454.456 327.168C465.72 333.312 478.008 336.384 491.32 336.384ZM804.64 390.144C779.381 390.144 757.024 384.853 737.568 374.272C718.453 363.349 703.435 348.501 692.512 329.728C681.931 310.955 676.64 289.792 676.64 266.24C676.64 243.029 681.931 221.867 692.512 202.752C703.435 183.637 718.624 168.619 738.08 157.696C757.536 146.432 779.723 140.8 804.64 140.8C828.533 140.8 850.208 146.261 869.664 157.184C889.12 167.765 904.48 182.613 915.744 201.728C927.008 220.501 932.64 242.005 932.64 266.24C932.64 287.403 927.52 307.541 917.28 326.656C907.381 345.429 892.704 360.789 873.248 372.736C853.792 384.341 830.923 390.144 804.64 390.144ZM804.64 331.264C824.779 331.264 840.992 325.461 853.28 313.856C865.909 301.909 872.224 286.549 872.224 267.776C872.224 248.32 865.909 232.277 853.28 219.648C840.992 207.019 824.779 200.704 804.64 200.704C785.867 200.704 770.165 207.019 757.536 219.648C744.907 231.936 738.592 247.467 738.592 266.24C738.592 286.037 744.907 301.909 757.536 313.856C770.165 325.461 785.867 331.264 804.64 331.264ZM1220.03 368.64C1220.03 370.347 1221.23 371.712 1223.62 372.736C1226.35 373.76 1228.91 374.272 1231.3 374.272V384H1167.81V365.056C1149.72 380.757 1128.73 388.608 1104.83 388.608C1068.99 388.608 1042.71 378.368 1025.98 357.888C1009.26 337.067 1000.9 311.125 1000.9 280.064V163.84C1000.9 162.133 999.531 160.768 996.8 159.744C994.411 158.72 992.021 158.208 989.632 158.208V148.48H1076.67V158.208C1074.28 158.208 1071.72 158.72 1068.99 159.744C1066.6 160.768 1065.41 162.133 1065.41 163.84V275.968C1065.41 290.645 1069.16 303.104 1076.67 313.344C1084.18 323.243 1095.79 328.192 1111.49 328.192C1126.51 328.192 1137.77 323.584 1145.28 314.368C1152.79 305.152 1156.54 293.376 1156.54 279.04V163.84C1156.54 162.133 1155.18 160.768 1152.45 159.744C1150.06 158.72 1147.67 158.208 1145.28 158.208V148.48H1231.3V158.208C1228.91 158.208 1226.35 158.72 1223.62 159.744C1221.23 160.768 1220.03 162.133 1220.03 163.84V368.64ZM1431.21 138.24V216.064H1421.48C1421.48 213.675 1420.97 211.456 1419.94 209.408C1418.92 207.019 1417.55 205.824 1415.85 205.824H1382.57V368.64C1382.57 370.347 1383.76 371.712 1386.15 372.736C1388.54 373.76 1390.93 374.272 1393.32 374.272V384H1309.86V374.272C1312.25 374.272 1314.64 373.76 1317.03 372.736C1319.42 371.712 1320.62 370.347 1320.62 368.64V205.824H1296.04C1294.33 205.824 1292.97 207.019 1291.94 209.408C1290.92 211.456 1290.41 213.675 1290.41 216.064H1280.68V138.24H1290.41C1290.41 140.629 1290.92 143.019 1291.94 145.408C1292.97 147.456 1294.33 148.48 1296.04 148.48H1320.62V88.576C1320.62 86.8694 1319.42 85.504 1317.03 84.48C1314.64 83.456 1312.25 82.944 1309.86 82.944V73.216H1393.32V82.944C1390.93 82.944 1388.54 83.456 1386.15 84.48C1383.76 85.504 1382.57 86.8694 1382.57 88.576V148.48H1415.85C1417.55 148.48 1418.92 147.456 1419.94 145.408C1420.97 143.019 1421.48 140.629 1421.48 138.24H1431.21Z"/>
</mask>
<path d="M283.544 158.208C281.155 158.208 278.595 158.72 275.864 159.744C273.475 160.768 272.28 162.133 272.28 163.84V368.64C272.28 370.347 273.475 371.712 275.864 372.736C278.595 373.76 281.155 374.272 283.544 374.272V384H207.768V355.84C186.264 379.051 159.128 390.656 126.36 390.656C101.443 390.656 79.4267 385.707 60.312 375.808C41.5387 365.568 26.8613 351.061 16.28 332.288C6.04001 313.515 0.920013 291.669 0.920013 266.752C0.920013 242.517 6.55201 221.013 17.816 202.24C29.4213 183.125 44.7814 168.448 63.896 158.208C83.0107 147.627 103.832 142.336 126.36 142.336C159.128 142.336 186.264 154.965 207.768 180.224V148.48H283.544V158.208ZM134.04 336.384C148.035 336.384 160.493 333.312 171.416 327.168C182.68 320.683 191.384 312.32 197.528 302.08C203.672 291.499 206.744 280.235 206.744 268.288C206.744 247.808 199.917 230.912 186.264 217.6C172.952 204.288 155.544 197.632 134.04 197.632C113.219 197.632 95.9814 204.117 82.328 217.088C69.016 230.059 62.36 246.613 62.36 266.752C62.36 287.915 69.1867 304.811 82.84 317.44C96.8347 330.069 113.901 336.384 134.04 336.384ZM495.416 142.336C519.651 142.336 541.667 147.627 561.464 158.208C581.261 168.448 596.792 182.955 608.056 201.728C619.661 220.501 625.464 242.176 625.464 266.752C625.464 291.669 619.832 313.515 608.568 332.288C597.304 350.72 581.773 365.056 561.976 375.296C542.52 385.536 520.333 390.656 495.416 390.656C466.744 390.656 441.827 382.123 420.664 365.056V384H345.912V374.272C348.301 374.272 350.691 373.76 353.08 372.736C355.811 371.712 357.176 370.347 357.176 368.64V15.36C357.176 13.6534 355.811 12.288 353.08 11.264C350.691 10.24 348.301 9.72803 345.912 9.72803V0H431.928V9.72803C429.539 9.72803 426.979 10.24 424.248 11.264C421.859 12.288 420.664 13.6534 420.664 15.36V166.4C441.144 150.357 466.061 142.336 495.416 142.336ZM491.32 336.384C511.8 336.384 528.867 330.069 542.52 317.44C556.515 304.811 563.512 287.915 563.512 266.752C563.512 246.955 556.685 230.571 543.032 217.6C529.379 204.288 512.141 197.632 491.32 197.632C470.157 197.632 452.749 204.288 439.096 217.6C425.443 230.912 418.616 247.808 418.616 268.288C418.616 280.235 421.688 291.499 427.832 302.08C434.317 312.32 443.192 320.683 454.456 327.168C465.72 333.312 478.008 336.384 491.32 336.384ZM804.64 390.144C779.381 390.144 757.024 384.853 737.568 374.272C718.453 363.349 703.435 348.501 692.512 329.728C681.931 310.955 676.64 289.792 676.64 266.24C676.64 243.029 681.931 221.867 692.512 202.752C703.435 183.637 718.624 168.619 738.08 157.696C757.536 146.432 779.723 140.8 804.64 140.8C828.533 140.8 850.208 146.261 869.664 157.184C889.12 167.765 904.48 182.613 915.744 201.728C927.008 220.501 932.64 242.005 932.64 266.24C932.64 287.403 927.52 307.541 917.28 326.656C907.381 345.429 892.704 360.789 873.248 372.736C853.792 384.341 830.923 390.144 804.64 390.144ZM804.64 331.264C824.779 331.264 840.992 325.461 853.28 313.856C865.909 301.909 872.224 286.549 872.224 267.776C872.224 248.32 865.909 232.277 853.28 219.648C840.992 207.019 824.779 200.704 804.64 200.704C785.867 200.704 770.165 207.019 757.536 219.648C744.907 231.936 738.592 247.467 738.592 266.24C738.592 286.037 744.907 301.909 757.536 313.856C770.165 325.461 785.867 331.264 804.64 331.264ZM1220.03 368.64C1220.03 370.347 1221.23 371.712 1223.62 372.736C1226.35 373.76 1228.91 374.272 1231.3 374.272V384H1167.81V365.056C1149.72 380.757 1128.73 388.608 1104.83 388.608C1068.99 388.608 1042.71 378.368 1025.98 357.888C1009.26 337.067 1000.9 311.125 1000.9 280.064V163.84C1000.9 162.133 999.531 160.768 996.8 159.744C994.411 158.72 992.021 158.208 989.632 158.208V148.48H1076.67V158.208C1074.28 158.208 1071.72 158.72 1068.99 159.744C1066.6 160.768 1065.41 162.133 1065.41 163.84V275.968C1065.41 290.645 1069.16 303.104 1076.67 313.344C1084.18 323.243 1095.79 328.192 1111.49 328.192C1126.51 328.192 1137.77 323.584 1145.28 314.368C1152.79 305.152 1156.54 293.376 1156.54 279.04V163.84C1156.54 162.133 1155.18 160.768 1152.45 159.744C1150.06 158.72 1147.67 158.208 1145.28 158.208V148.48H1231.3V158.208C1228.91 158.208 1226.35 158.72 1223.62 159.744C1221.23 160.768 1220.03 162.133 1220.03 163.84V368.64ZM1431.21 138.24V216.064H1421.48C1421.48 213.675 1420.97 211.456 1419.94 209.408C1418.92 207.019 1417.55 205.824 1415.85 205.824H1382.57V368.64C1382.57 370.347 1383.76 371.712 1386.15 372.736C1388.54 373.76 1390.93 374.272 1393.32 374.272V384H1309.86V374.272C1312.25 374.272 1314.64 373.76 1317.03 372.736C1319.42 371.712 1320.62 370.347 1320.62 368.64V205.824H1296.04C1294.33 205.824 1292.97 207.019 1291.94 209.408C1290.92 211.456 1290.41 213.675 1290.41 216.064H1280.68V138.24H1290.41C1290.41 140.629 1290.92 143.019 1291.94 145.408C1292.97 147.456 1294.33 148.48 1296.04 148.48H1320.62V88.576C1320.62 86.8694 1319.42 85.504 1317.03 84.48C1314.64 83.456 1312.25 82.944 1309.86 82.944V73.216H1393.32V82.944C1390.93 82.944 1388.54 83.456 1386.15 84.48C1383.76 85.504 1382.57 86.8694 1382.57 88.576V148.48H1415.85C1417.55 148.48 1418.92 147.456 1419.94 145.408C1420.97 143.019 1421.48 140.629 1421.48 138.24H1431.21Z" stroke="#3F3E3A" stroke-opacity="0.35" stroke-width="2" mask="url(#path-1-inside-1_2498_2)"/>
</svg>
