<svg width="1038" height="266" viewBox="0 0 1038 266" fill="none" xmlns="http://www.w3.org/2000/svg">
<path d="M86.815 196.807C72.3097 196.807 58.8163 193.434 46.335 186.687C33.8537 179.772 21.794 170.326 10.156 158.351C9.81866 158.014 9.39699 157.845 8.89099 157.845C7.37299 157.845 5.68633 158.773 3.83099 160.628L0.541992 157.086L35.709 123.943L38.998 127.485C37.986 128.328 37.0583 129.509 36.215 131.027C35.3717 132.545 35.203 133.641 35.709 134.316C51.395 154.219 68.5147 164.17 87.068 164.17C93.4773 164.17 99.212 162.905 104.272 160.375C109.501 157.845 113.549 154.64 116.416 150.761C119.283 146.713 120.717 142.581 120.717 138.364C120.717 128.413 112.031 120.232 94.658 113.823L63.539 102.185C51.0577 97.631 41.275 91.3903 34.191 83.463C27.2757 75.5357 23.818 66.006 23.818 54.874C23.818 43.9107 26.348 34.381 31.408 26.285C36.6367 18.0203 43.9737 11.6953 53.419 7.31C62.8643 2.92466 73.8277 0.731995 86.309 0.731995C98.1157 0.731995 107.983 2.58733 115.91 6.298C124.006 9.83999 132.608 15.3217 141.716 22.743C141.885 22.9117 142.222 22.996 142.728 22.996C143.571 22.996 144.499 22.743 145.511 22.237C146.692 21.5623 147.619 20.8877 148.294 20.213L151.583 23.502L120.211 54.368L116.922 50.826C117.765 49.9827 118.356 49.055 118.693 48.043C119.199 46.8623 119.115 46.019 118.44 45.513C107.477 36.7423 96.5977 32.357 85.803 32.357C77.201 32.357 70.37 34.381 65.31 38.429C60.25 42.3083 57.72 47.284 57.72 53.356C57.72 58.7533 59.0693 62.8857 61.768 65.753C64.6353 68.6203 68.9363 71.066 74.671 73.09L105.284 84.222C115.91 88.1013 124.765 92.2337 131.849 96.619C138.933 100.836 144.583 106.486 148.8 113.57C153.017 120.485 155.125 129.172 155.125 139.629C155.125 149.749 152.426 159.194 147.029 167.965C141.8 176.567 133.957 183.567 123.5 188.964C113.211 194.193 100.983 196.807 86.815 196.807Z" fill="#3F3E3A"/>
<path d="M313.272 80.427C312.091 80.427 310.826 80.68 309.477 81.186C308.296 81.692 307.706 82.3667 307.706 83.21V184.41C307.706 185.253 308.296 185.928 309.477 186.434C310.826 186.94 312.091 187.193 313.272 187.193V192H275.828V178.085C265.202 189.554 251.793 195.289 235.601 195.289C223.288 195.289 212.409 192.843 202.964 187.952C193.687 182.892 186.434 175.724 181.206 166.447C176.146 157.17 173.616 146.376 173.616 134.063C173.616 122.088 176.399 111.462 181.965 102.185C187.699 92.7397 195.289 85.487 204.735 80.427C214.18 75.1983 224.469 72.584 235.601 72.584C251.793 72.584 265.202 78.8247 275.828 91.306V75.62H313.272V80.427ZM239.396 168.471C246.311 168.471 252.467 166.953 257.865 163.917C263.431 160.712 267.732 156.58 270.768 151.52C273.804 146.291 275.322 140.725 275.322 134.822C275.322 124.702 271.948 116.353 265.202 109.775C258.624 103.197 250.022 99.908 239.396 99.908C229.107 99.908 220.589 103.113 213.843 109.522C207.265 115.931 203.976 124.112 203.976 134.063C203.976 144.52 207.349 152.869 214.096 159.11C221.011 165.351 229.444 168.471 239.396 168.471Z" fill="#3F3E3A"/>
<path d="M472.361 80.427C471.181 80.427 469.916 80.68 468.566 81.186C467.386 81.692 466.795 82.3667 466.795 83.21V258.033C466.795 258.876 467.386 259.551 468.566 260.057C469.916 260.563 471.181 260.816 472.361 260.816V265.623H429.098V260.816C430.279 260.816 431.46 260.563 432.64 260.057C433.99 259.551 434.664 258.876 434.664 258.033V182.133C424.038 191.072 411.894 195.542 398.232 195.542C385.92 195.542 374.872 193.012 365.089 187.952C355.307 182.892 347.632 175.724 342.066 166.447C336.5 157.17 333.717 146.46 333.717 134.316C333.717 122.172 336.5 111.462 342.066 102.185C347.801 92.7397 355.56 85.487 365.342 80.427C375.294 75.1983 386.257 72.584 398.232 72.584C411.894 72.584 424.038 76.8007 434.664 85.234V75.62H472.361V80.427ZM399.75 168.471C406.328 168.471 412.316 166.953 417.713 163.917C423.279 160.881 427.665 156.833 430.869 151.773C434.074 146.713 435.676 141.316 435.676 135.581C435.676 125.124 432.303 116.606 425.556 110.028C418.978 103.45 410.376 100.161 399.75 100.161C389.293 100.161 380.775 103.45 374.197 110.028C367.619 116.437 364.33 124.702 364.33 134.822C364.33 145.279 367.704 153.544 374.45 159.616C381.366 165.519 389.799 168.471 399.75 168.471Z" fill="#3F3E3A"/>
<path d="M522.155 54.368C516.758 54.368 512.119 52.5127 508.24 48.802C504.529 45.0913 502.674 40.453 502.674 34.887C502.674 29.6583 504.529 25.1887 508.24 21.478C512.119 17.5987 516.758 15.659 522.155 15.659C527.552 15.659 532.106 17.5987 535.817 21.478C539.528 25.1887 541.383 29.6583 541.383 34.887C541.383 40.453 539.528 45.0913 535.817 48.802C532.106 52.5127 527.552 54.368 522.155 54.368ZM505.71 83.21C505.71 82.3667 505.035 81.692 503.686 81.186C502.505 80.68 501.325 80.427 500.144 80.427V75.62H543.66V80.427C542.479 80.427 541.214 80.68 539.865 81.186C538.684 81.692 538.094 82.3667 538.094 83.21V184.41C538.094 185.253 538.684 185.928 539.865 186.434C541.214 186.94 542.479 187.193 543.66 187.193V192H500.144V187.193C501.325 187.193 502.505 186.94 503.686 186.434C505.035 185.928 505.71 185.253 505.71 184.41V83.21Z" fill="#3F3E3A"/>
<path d="M644.352 72.584C656.327 72.584 667.206 75.1983 676.989 80.427C686.772 85.487 694.446 92.6553 700.012 101.932C705.747 111.209 708.614 121.919 708.614 134.063C708.614 146.376 705.831 157.17 700.265 166.447C694.699 175.555 687.025 182.639 677.242 187.699C667.628 192.759 656.665 195.289 644.352 195.289C630.184 195.289 617.871 191.072 607.414 182.639V192H570.476V187.193C571.657 187.193 572.837 186.94 574.018 186.434C575.367 185.928 576.042 185.253 576.042 184.41V9.84C576.042 8.99667 575.367 8.322 574.018 7.81599C572.837 7.31 571.657 7.057 570.476 7.057V2.24999H612.98V7.057C611.799 7.057 610.534 7.31 609.185 7.81599C608.004 8.322 607.414 8.99667 607.414 9.84V84.475C617.534 76.5477 629.847 72.584 644.352 72.584ZM642.328 168.471C652.448 168.471 660.881 165.351 667.628 159.11C674.543 152.869 678.001 144.52 678.001 134.063C678.001 124.28 674.628 116.184 667.881 109.775C661.134 103.197 652.617 99.908 642.328 99.908C631.871 99.908 623.269 103.197 616.522 109.775C609.775 116.353 606.402 124.702 606.402 134.822C606.402 140.725 607.92 146.291 610.956 151.52C614.161 156.58 618.546 160.712 624.112 163.917C629.678 166.953 635.75 168.471 642.328 168.471Z" fill="#3F3E3A"/>
<path d="M969.008 7.057C967.828 7.057 966.478 7.31 964.96 7.81599C963.611 8.322 962.936 8.99667 962.936 9.84V184.41C962.936 185.253 963.611 185.928 964.96 186.434C966.478 186.94 967.828 187.193 969.008 187.193V192H921.444V187.193C922.625 187.193 923.89 186.94 925.239 186.434C926.757 185.928 927.516 185.253 927.516 184.41V108.004H842.508V184.41C842.508 185.253 843.183 185.928 844.532 186.434C846.05 186.94 847.4 187.193 848.58 187.193V192H801.016V187.193C802.197 187.193 803.462 186.94 804.811 186.434C806.329 185.928 807.088 185.253 807.088 184.41V9.84C807.088 8.99667 806.329 8.322 804.811 7.81599C803.462 7.31 802.197 7.057 801.016 7.057V2.24999H848.58V7.057C847.4 7.057 846.05 7.31 844.532 7.81599C843.183 8.322 842.508 8.99667 842.508 9.84V76.379H927.516V9.84C927.516 8.99667 926.757 8.322 925.239 7.81599C923.89 7.31 922.625 7.057 921.444 7.057V2.24999H969.008V7.057Z" fill="#3F3E3A"/>
<path d="M1015.98 194.783C1009.74 194.783 1004.51 192.759 1000.3 188.711C996.249 184.494 994.225 179.266 994.225 173.025C994.225 167.122 996.334 162.146 1000.55 158.098C1004.77 153.881 1009.91 151.773 1015.98 151.773C1021.89 151.773 1026.86 153.881 1030.91 158.098C1035.13 162.146 1037.24 167.122 1037.24 173.025C1037.24 179.266 1035.13 184.494 1030.91 188.711C1026.86 192.759 1021.89 194.783 1015.98 194.783Z" fill="#3F3E3A"/>
</svg>
