<svg width="795" height="536" viewBox="0 0 795 536" fill="none" xmlns="http://www.w3.org/2000/svg">
<mask id="path-1-inside-1_2358_27" fill="white">
<path d="M153.688 115.336C177.923 115.336 199.597 120.627 218.712 131.208C237.827 141.448 252.675 156.125 263.256 175.24C274.179 194.013 279.64 215.688 279.64 240.264C279.64 265.181 274.179 287.027 263.256 305.8C252.675 324.573 237.656 339.08 218.2 349.32C199.085 359.56 177.069 364.68 152.152 364.68C123.821 364.68 98.392 355.123 75.864 336.008V490.632C75.864 492.339 77.0587 493.704 79.448 494.728C82.1787 495.752 84.7387 496.264 87.128 496.264V505.992H0.6V496.264C2.98933 496.264 5.37867 495.752 7.768 494.728C10.4987 493.704 11.864 492.339 11.864 490.632L11.864 136.84C11.864 135.133 10.4987 133.768 7.768 132.744C5.37867 131.72 2.98933 131.208 0.6 131.208V121.48H75.864V142.984C99.0747 124.552 125.016 115.336 153.688 115.336ZM147.032 309.896C167.171 309.896 184.067 303.752 197.72 291.464C211.373 279.176 218.2 262.451 218.2 241.288C218.2 220.808 211.544 204.083 198.232 191.112C184.92 177.8 167.853 171.144 147.032 171.144C125.528 171.144 107.949 177.8 94.296 191.112C80.984 204.083 74.328 220.979 74.328 241.8C74.328 253.405 77.4 264.499 83.544 275.08C90.0293 285.661 98.7333 294.195 109.656 300.68C120.92 306.824 133.379 309.896 147.032 309.896ZM494.108 106.12V188.552H484.38C484.38 186.163 483.868 183.432 482.844 180.36C481.82 177.288 480.455 175.581 478.748 175.24H475.164C464.583 175.24 453.831 178.312 442.908 184.456C432.327 190.259 423.452 198.109 416.284 208.008C409.457 217.565 406.044 227.805 406.044 238.728V341.64C406.044 343.347 407.239 344.712 409.628 345.736C412.359 346.76 414.919 347.272 417.308 347.272V357H331.292V347.272C333.681 347.272 336.071 346.76 338.46 345.736C341.191 344.712 342.556 343.347 342.556 341.64V136.84C342.556 135.133 341.191 133.768 338.46 132.744C336.071 131.72 333.681 131.208 331.292 131.208V121.48H406.044V143.496C415.26 134.963 426.353 128.136 439.324 123.016C452.295 117.896 465.265 115.336 478.236 115.336H478.748H479.26C480.967 115.336 482.161 114.312 482.844 112.264C483.868 110.216 484.38 108.168 484.38 106.12H494.108ZM590.436 78.984C579.513 78.984 570.297 75.2293 562.788 67.72C555.279 60.2107 551.524 50.824 551.524 39.56C551.524 28.9787 555.279 19.9333 562.788 12.424C570.639 4.57331 579.855 0.64798 590.436 0.64798C601.017 0.64798 610.063 4.57331 617.572 12.424C625.423 19.9333 629.348 28.9787 629.348 39.56C629.348 50.824 625.593 60.2107 618.084 67.72C610.575 75.2293 601.359 78.984 590.436 78.984ZM623.716 397.96C623.716 424.243 620.132 445.917 612.964 462.984C605.796 480.392 593.167 498.312 575.076 516.744L574.052 518.792C574.052 520.157 574.564 521.693 575.588 523.4C576.953 525.448 578.319 526.984 579.684 528.008L573.028 535.176L505.444 475.272L512.1 468.104C514.148 469.811 516.367 471.176 518.756 472.2C521.487 473.224 523.535 473.053 524.9 471.688C535.481 460.424 543.503 449.501 548.964 438.92C554.425 428.339 557.156 416.904 557.156 404.616V136.84C557.156 135.133 555.791 133.768 553.06 132.744C550.671 131.72 548.111 131.208 545.38 131.208V121.48H635.492V131.208C632.761 131.208 630.031 131.72 627.3 132.744C624.911 133.768 623.716 135.133 623.716 136.84V397.96ZM751.212 362.632C738.583 362.632 728.001 358.536 719.468 350.344C711.276 341.811 707.18 331.229 707.18 318.6C707.18 306.653 711.447 296.584 719.98 288.392C728.513 279.859 738.924 275.592 751.212 275.592C763.159 275.592 773.228 279.859 781.42 288.392C789.953 296.584 794.22 306.653 794.22 318.6C794.22 331.229 789.953 341.811 781.42 350.344C773.228 358.536 763.159 362.632 751.212 362.632Z"/>
</mask>
<path d="M218.712 131.208L218.228 132.083L218.24 132.089L218.712 131.208ZM263.256 175.24L262.381 175.724L262.386 175.734L262.392 175.743L263.256 175.24ZM263.256 305.8L262.392 305.297L262.385 305.309L263.256 305.8ZM218.2 349.32L217.734 348.435L217.728 348.439L218.2 349.32ZM75.864 336.008L76.511 335.245L74.864 333.848V336.008H75.864ZM79.448 494.728L79.0541 495.647L79.0753 495.656L79.0969 495.664L79.448 494.728ZM87.128 496.264H88.128V495.264H87.128V496.264ZM87.128 505.992V506.992H88.128V505.992H87.128ZM0.6 505.992H-0.4V506.992H0.6V505.992ZM0.6 496.264V495.264H-0.4V496.264H0.6ZM7.768 494.728L7.41688 493.792L7.39528 493.8L7.37408 493.809L7.768 494.728ZM7.768 132.744L7.37408 133.663L7.39528 133.672L7.41688 133.68L7.768 132.744ZM0.6 131.208H-0.4V132.208H0.6V131.208ZM0.6 121.48V120.48H-0.4V121.48H0.6ZM75.864 121.48H76.864V120.48H75.864V121.48ZM75.864 142.984H74.864V145.055L76.4859 143.767L75.864 142.984ZM197.72 291.464L198.389 292.207L197.72 291.464ZM198.232 191.112L197.525 191.819L197.534 191.828L198.232 191.112ZM94.296 191.112L94.9939 191.828L94.9941 191.828L94.296 191.112ZM83.544 275.08L82.6792 275.582L82.6852 275.592L82.6914 275.603L83.544 275.08ZM109.656 300.68L109.145 301.54L109.161 301.549L109.177 301.558L109.656 300.68ZM153.688 115.336V116.336C177.772 116.336 199.277 121.592 218.228 132.083L218.712 131.208L219.196 130.333C199.918 119.661 178.073 114.336 153.688 114.336V115.336ZM218.712 131.208L218.24 132.089C237.183 142.238 251.892 156.777 262.381 175.724L263.256 175.24L264.131 174.756C253.457 155.474 238.47 140.658 219.184 130.327L218.712 131.208ZM263.256 175.24L262.392 175.743C273.214 194.344 278.64 215.841 278.64 240.264H279.64H280.64C280.64 215.535 275.143 193.682 264.12 174.737L263.256 175.24ZM279.64 240.264H278.64C278.64 265.031 273.213 286.698 262.392 305.297L263.256 305.8L264.12 306.303C275.144 287.356 280.64 265.332 280.64 240.264H279.64ZM263.256 305.8L262.385 305.309C251.9 323.911 237.024 338.283 217.734 348.435L218.2 349.32L218.666 350.205C238.288 339.877 253.449 325.235 264.127 306.291L263.256 305.8ZM218.2 349.32L217.728 348.439C198.779 358.59 176.929 363.68 152.152 363.68V364.68V365.68C177.209 365.68 199.392 360.53 218.672 350.201L218.2 349.32ZM152.152 364.68V363.68C124.069 363.68 98.8667 354.214 76.511 335.245L75.864 336.008L75.217 336.771C97.9173 356.031 123.574 365.68 152.152 365.68V364.68ZM75.864 336.008H74.864V490.632H75.864H76.864V336.008H75.864ZM75.864 490.632H74.864C74.864 492.933 76.5164 494.56 79.0541 495.647L79.448 494.728L79.8419 493.809C77.6009 492.848 76.864 491.745 76.864 490.632H75.864ZM79.448 494.728L79.0969 495.664C81.9158 496.721 84.5956 497.264 87.128 497.264V496.264V495.264C84.8818 495.264 82.4415 494.783 79.7991 493.792L79.448 494.728ZM87.128 496.264H86.128V505.992H87.128H88.128V496.264H87.128ZM87.128 505.992V504.992H0.6V505.992V506.992H87.128V505.992ZM0.6 505.992H1.6V496.264H0.6H-0.4V505.992H0.6ZM0.6 496.264V497.264C3.13628 497.264 5.65916 496.72 8.16192 495.647L7.768 494.728L7.37408 493.809C5.09818 494.784 2.84239 495.264 0.6 495.264V496.264ZM7.768 494.728L8.11913 495.664C10.9339 494.609 12.864 493.007 12.864 490.632H11.864H10.864C10.864 491.67 10.0634 492.799 7.41688 493.792L7.768 494.728ZM11.864 490.632H12.864L12.864 136.84H11.864H10.864L10.864 490.632H11.864ZM11.864 136.84H12.864C12.864 134.465 10.9339 132.863 8.11913 131.808L7.768 132.744L7.41688 133.68C10.0634 134.673 10.864 135.802 10.864 136.84H11.864ZM7.768 132.744L8.16192 131.825C5.65916 130.752 3.13628 130.208 0.6 130.208V131.208V132.208C2.84239 132.208 5.09818 132.688 7.37408 133.663L7.768 132.744ZM0.6 131.208H1.6V121.48H0.6H-0.4V131.208H0.6ZM0.6 121.48V122.48H75.864V121.48V120.48H0.6V121.48ZM75.864 121.48H74.864V142.984H75.864H76.864V121.48H75.864ZM75.864 142.984L76.4859 143.767C99.5261 125.47 125.25 116.336 153.688 116.336V115.336V114.336C124.782 114.336 98.6232 123.634 75.2421 142.201L75.864 142.984ZM147.032 309.896V310.896C167.392 310.896 184.534 304.677 198.389 292.207L197.72 291.464L197.051 290.721C183.6 302.827 166.949 308.896 147.032 308.896V309.896ZM197.72 291.464L198.389 292.207C212.286 279.7 219.2 262.687 219.2 241.288H218.2H217.2C217.2 262.215 210.461 278.652 197.051 290.721L197.72 291.464ZM218.2 241.288H219.2C219.2 220.569 212.456 203.575 198.93 190.396L198.232 191.112L197.534 191.828C210.632 204.591 217.2 221.047 217.2 241.288H218.2ZM198.232 191.112L198.939 190.405C185.419 176.885 168.088 170.144 147.032 170.144V171.144V172.144C167.619 172.144 184.421 178.715 197.525 191.819L198.232 191.112ZM147.032 171.144V170.144C125.303 170.144 107.462 176.878 93.5979 190.396L94.296 191.112L94.9941 191.828C108.436 178.722 125.753 172.144 147.032 172.144V171.144ZM94.296 191.112L93.5981 190.396C80.0689 203.578 73.328 220.745 73.328 241.8H74.328H75.328C75.328 221.213 81.8991 204.587 94.9939 191.828L94.296 191.112ZM74.328 241.8H73.328C73.328 253.591 76.4517 264.857 82.6792 275.582L83.544 275.08L84.4088 274.578C78.3484 264.14 75.328 253.219 75.328 241.8H74.328ZM83.544 275.08L82.6914 275.603C89.2637 286.326 98.0865 294.974 109.145 301.54L109.656 300.68L110.167 299.82C99.3802 293.416 90.795 284.997 84.3966 274.557L83.544 275.08ZM109.656 300.68L109.177 301.558C120.597 307.787 133.222 310.896 147.032 310.896V309.896V308.896C133.535 308.896 121.243 305.861 110.135 299.802L109.656 300.68ZM494.108 106.12H495.108V105.12H494.108V106.12ZM494.108 188.552V189.552H495.108V188.552H494.108ZM484.38 188.552H483.38V189.552H484.38V188.552ZM482.844 180.36L483.793 180.044L482.844 180.36ZM478.748 175.24L478.944 174.259L478.847 174.24H478.748V175.24ZM442.908 184.456L443.389 185.333L443.398 185.328L442.908 184.456ZM416.284 208.008L415.474 207.421L415.47 207.427L416.284 208.008ZM409.628 345.736L409.234 346.655L409.255 346.664L409.277 346.672L409.628 345.736ZM417.308 347.272H418.308V346.272H417.308V347.272ZM417.308 357V358H418.308V357H417.308ZM331.292 357H330.292V358H331.292V357ZM331.292 347.272V346.272H330.292V347.272H331.292ZM338.46 345.736L338.109 344.8L338.087 344.808L338.066 344.817L338.46 345.736ZM338.46 132.744L338.066 133.663L338.087 133.672L338.109 133.68L338.46 132.744ZM331.292 131.208H330.292V132.208H331.292V131.208ZM331.292 121.48V120.48H330.292V121.48H331.292ZM406.044 121.48H407.044V120.48H406.044V121.48ZM406.044 143.496H405.044V145.785L406.723 144.23L406.044 143.496ZM439.324 123.016L439.691 123.946L439.324 123.016ZM482.844 112.264L481.95 111.817L481.918 111.88L481.895 111.948L482.844 112.264ZM484.38 106.12V105.12H483.38V106.12H484.38ZM494.108 106.12H493.108V188.552H494.108H495.108V106.12H494.108ZM494.108 188.552V187.552H484.38V188.552V189.552H494.108V188.552ZM484.38 188.552H485.38C485.38 186.025 484.839 183.184 483.793 180.044L482.844 180.36L481.895 180.676C482.897 183.68 483.38 186.301 483.38 188.552H484.38ZM482.844 180.36L483.793 180.044C482.752 176.92 481.224 174.715 478.944 174.259L478.748 175.24L478.552 176.221C479.685 176.447 480.888 177.656 481.895 180.676L482.844 180.36ZM478.748 175.24V174.24H475.164V175.24V176.24H478.748V175.24ZM475.164 175.24V174.24C464.382 174.24 453.462 177.372 442.418 183.584L442.908 184.456L443.398 185.328C454.199 179.252 464.784 176.24 475.164 176.24V175.24ZM442.908 184.456L442.427 183.579C431.714 189.454 422.728 197.404 415.474 207.421L416.284 208.008L417.094 208.594C424.176 198.814 432.939 191.063 443.389 185.333L442.908 184.456ZM416.284 208.008L415.47 207.427C408.532 217.14 405.044 227.581 405.044 238.728H406.044H407.044C407.044 228.03 410.383 217.99 417.098 208.589L416.284 208.008ZM406.044 238.728H405.044V341.64H406.044H407.044V238.728H406.044ZM406.044 341.64H405.044C405.044 343.941 406.696 345.568 409.234 346.655L409.628 345.736L410.022 344.817C407.781 343.856 407.044 342.753 407.044 341.64H406.044ZM409.628 345.736L409.277 346.672C412.096 347.729 414.776 348.272 417.308 348.272V347.272V346.272C415.062 346.272 412.621 345.791 409.979 344.8L409.628 345.736ZM417.308 347.272H416.308V357H417.308H418.308V347.272H417.308ZM417.308 357V356H331.292V357V358H417.308V357ZM331.292 357H332.292V347.272H331.292H330.292V357H331.292ZM331.292 347.272V348.272C333.828 348.272 336.351 347.728 338.854 346.655L338.46 345.736L338.066 344.817C335.79 345.792 333.534 346.272 331.292 346.272V347.272ZM338.46 345.736L338.811 346.672C341.626 345.617 343.556 344.015 343.556 341.64H342.556H341.556C341.556 342.678 340.755 343.807 338.109 344.8L338.46 345.736ZM342.556 341.64H343.556V136.84H342.556H341.556V341.64H342.556ZM342.556 136.84H343.556C343.556 134.465 341.626 132.863 338.811 131.808L338.46 132.744L338.109 133.68C340.755 134.673 341.556 135.802 341.556 136.84H342.556ZM338.46 132.744L338.854 131.825C336.351 130.752 333.828 130.208 331.292 130.208V131.208V132.208C333.534 132.208 335.79 132.688 338.066 133.663L338.46 132.744ZM331.292 131.208H332.292V121.48H331.292H330.292V131.208H331.292ZM331.292 121.48V122.48H406.044V121.48V120.48H331.292V121.48ZM406.044 121.48H405.044V143.496H406.044H407.044V121.48H406.044ZM406.044 143.496L406.723 144.23C415.839 135.789 426.823 129.026 439.691 123.946L439.324 123.016L438.957 122.086C425.883 127.246 414.681 134.136 405.365 142.762L406.044 143.496ZM439.324 123.016L439.691 123.946C452.554 118.869 465.4 116.336 478.236 116.336V115.336V114.336C465.13 114.336 452.036 116.923 438.957 122.086L439.324 123.016ZM478.236 115.336V116.336H478.748V115.336V114.336H478.236V115.336ZM478.748 115.336V116.336H479.26V115.336V114.336H478.748V115.336ZM479.26 115.336V116.336C480.33 116.336 481.292 116.008 482.087 115.327C482.864 114.661 483.414 113.715 483.793 112.58L482.844 112.264L481.895 111.948C481.591 112.861 481.203 113.451 480.785 113.809C480.385 114.152 479.896 114.336 479.26 114.336V115.336ZM482.844 112.264L483.738 112.711C484.824 110.541 485.38 108.341 485.38 106.12H484.38H483.38C483.38 107.995 482.912 109.891 481.95 111.817L482.844 112.264ZM484.38 106.12V107.12H494.108V106.12V105.12H484.38V106.12ZM562.788 67.72L562.081 68.4271L562.788 67.72ZM562.788 12.424L562.081 11.7169L562.788 12.424ZM617.572 12.424L616.849 13.1152L616.865 13.1313L616.881 13.1466L617.572 12.424ZM618.084 67.72L618.791 68.4271L618.084 67.72ZM612.964 462.984L612.042 462.597L612.039 462.603L612.964 462.984ZM575.076 516.744L574.362 516.044L574.252 516.156L574.182 516.297L575.076 516.744ZM574.052 518.792L573.158 518.345L573.052 518.556V518.792H574.052ZM575.588 523.4L574.73 523.914L574.743 523.935L574.756 523.955L575.588 523.4ZM579.684 528.008L580.417 528.688L581.173 527.875L580.284 527.208L579.684 528.008ZM573.028 535.176L572.365 535.924L573.096 536.573L573.761 535.856L573.028 535.176ZM505.444 475.272L504.711 474.592L504.015 475.342L504.781 476.02L505.444 475.272ZM512.1 468.104L512.74 467.336L512.012 466.729L511.367 467.424L512.1 468.104ZM518.756 472.2L518.362 473.119L518.383 473.128L518.405 473.136L518.756 472.2ZM524.9 471.688L525.607 472.395L525.618 472.384L525.629 472.373L524.9 471.688ZM553.06 132.744L552.666 133.663L552.687 133.672L552.709 133.68L553.06 132.744ZM545.38 131.208H544.38V132.208H545.38V131.208ZM545.38 121.48V120.48H544.38V121.48H545.38ZM635.492 121.48H636.492V120.48H635.492V121.48ZM635.492 131.208V132.208H636.492V131.208H635.492ZM627.3 132.744L626.949 131.808L626.927 131.816L626.906 131.825L627.3 132.744ZM590.436 78.984V77.984C579.77 77.984 570.811 74.3288 563.495 67.0129L562.788 67.72L562.081 68.4271C569.784 76.1299 579.257 79.984 590.436 79.984V78.984ZM562.788 67.72L563.495 67.0129C556.186 59.7034 552.524 50.5766 552.524 39.56H551.524H550.524C550.524 51.0714 554.372 60.718 562.081 68.4271L562.788 67.72ZM551.524 39.56H552.524C552.524 29.245 556.172 20.4537 563.495 13.1311L562.788 12.424L562.081 11.7169C554.385 19.413 550.524 28.7124 550.524 39.56H551.524ZM562.788 12.424L563.495 13.1311C571.169 5.45768 580.134 1.64798 590.436 1.64798V0.64798V-0.35202C579.575 -0.35202 570.109 3.68895 562.081 11.7169L562.788 12.424ZM590.436 0.64798V1.64798C600.736 1.64798 609.523 5.45583 616.849 13.1152L617.572 12.424L618.295 11.7328C610.602 3.6908 601.298 -0.35202 590.436 -0.35202V0.64798ZM617.572 12.424L616.881 13.1466C624.54 20.473 628.348 29.2597 628.348 39.56H629.348H630.348C630.348 28.6976 626.305 19.3937 618.263 11.7013L617.572 12.424ZM629.348 39.56H628.348C628.348 50.5766 624.686 59.7034 617.377 67.0129L618.084 67.72L618.791 68.4271C626.5 60.718 630.348 51.0714 630.348 39.56H629.348ZM618.084 67.72L617.377 67.0129C610.061 74.3288 601.102 77.984 590.436 77.984V78.984V79.984C601.615 79.984 611.088 76.1299 618.791 68.4271L618.084 67.72ZM623.716 397.96H622.716C622.716 424.161 619.142 445.693 612.042 462.597L612.964 462.984L613.886 463.371C621.122 446.142 624.716 424.324 624.716 397.96H623.716ZM612.964 462.984L612.039 462.603C604.935 479.857 592.394 497.672 574.362 516.044L575.076 516.744L575.79 517.444C593.939 498.952 606.657 480.927 613.889 463.365L612.964 462.984ZM575.076 516.744L574.182 516.297L573.158 518.345L574.052 518.792L574.946 519.239L575.97 517.191L575.076 516.744ZM574.052 518.792H573.052C573.052 520.403 573.653 522.119 574.73 523.914L575.588 523.4L576.445 522.885C575.475 521.267 575.052 519.911 575.052 518.792H574.052ZM575.588 523.4L574.756 523.955C576.159 526.059 577.597 527.693 579.084 528.808L579.684 528.008L580.284 527.208C579.04 526.275 577.748 524.837 576.42 522.845L575.588 523.4ZM579.684 528.008L578.951 527.328L572.295 534.496L573.028 535.176L573.761 535.856L580.417 528.688L579.684 528.008ZM573.028 535.176L573.691 534.428L506.107 474.524L505.444 475.272L504.781 476.02L572.365 535.924L573.028 535.176ZM505.444 475.272L506.177 475.952L512.833 468.784L512.1 468.104L511.367 467.424L504.711 474.592L505.444 475.272ZM512.1 468.104L511.46 468.872C513.58 470.639 515.881 472.056 518.362 473.119L518.756 472.2L519.15 471.281C516.852 470.296 514.716 468.982 512.74 467.336L512.1 468.104ZM518.756 472.2L518.405 473.136C521.29 474.218 523.834 474.169 525.607 472.395L524.9 471.688L524.193 470.981C523.236 471.938 521.683 472.23 519.107 471.264L518.756 472.2ZM524.9 471.688L525.629 472.373C536.256 461.06 544.338 450.063 549.853 439.379L548.964 438.92L548.075 438.461C542.667 448.94 534.707 459.788 524.171 471.003L524.9 471.688ZM548.964 438.92L549.853 439.379C555.39 428.651 558.156 417.058 558.156 404.616H557.156H556.156C556.156 416.75 553.461 428.026 548.075 438.461L548.964 438.92ZM557.156 404.616H558.156V136.84H557.156H556.156V404.616H557.156ZM557.156 136.84H558.156C558.156 134.465 556.226 132.863 553.411 131.808L553.06 132.744L552.709 133.68C555.355 134.673 556.156 135.802 556.156 136.84H557.156ZM553.06 132.744L553.454 131.825C550.934 130.745 548.239 130.208 545.38 130.208V131.208V132.208C547.982 132.208 550.407 132.695 552.666 133.663L553.06 132.744ZM545.38 131.208H546.38V121.48H545.38H544.38V131.208H545.38ZM545.38 121.48V122.48H635.492V121.48V120.48H545.38V121.48ZM635.492 121.48H634.492V131.208H635.492H636.492V121.48H635.492ZM635.492 131.208V130.208C632.633 130.208 629.784 130.744 626.949 131.808L627.3 132.744L627.651 133.68C630.277 132.696 632.889 132.208 635.492 132.208V131.208ZM627.3 132.744L626.906 131.825C624.368 132.912 622.716 134.539 622.716 136.84H623.716H624.716C624.716 135.727 625.453 134.624 627.694 133.663L627.3 132.744ZM623.716 136.84H622.716V397.96H623.716H624.716V136.84H623.716ZM719.468 350.344L718.747 351.037L718.761 351.051L718.776 351.065L719.468 350.344ZM719.98 288.392L720.673 289.113L720.68 289.106L720.687 289.099L719.98 288.392ZM781.42 288.392L780.699 289.085L780.713 289.099L780.727 289.113L781.42 288.392ZM781.42 350.344L780.713 349.637L781.42 350.344ZM751.212 362.632V361.632C738.822 361.632 728.494 357.623 720.161 349.623L719.468 350.344L718.776 351.065C727.508 359.449 738.344 363.632 751.212 363.632V362.632ZM719.468 350.344L720.189 349.651C712.189 341.318 708.18 330.99 708.18 318.6H707.18H706.18C706.18 331.468 710.363 342.304 718.747 351.037L719.468 350.344ZM707.18 318.6H708.18C708.18 306.923 712.338 297.115 720.673 289.113L719.98 288.392L719.287 287.671C710.556 296.053 706.18 306.384 706.18 318.6H707.18ZM719.98 288.392L720.687 289.099C729.029 280.757 739.184 276.592 751.212 276.592V275.592V274.592C738.664 274.592 727.998 278.96 719.273 287.685L719.98 288.392ZM751.212 275.592V276.592C762.889 276.592 772.697 280.75 780.699 289.085L781.42 288.392L782.141 287.699C773.759 278.967 763.428 274.592 751.212 274.592V275.592ZM781.42 288.392L780.727 289.113C789.062 297.115 793.22 306.923 793.22 318.6H794.22H795.22C795.22 306.384 790.845 296.053 782.113 287.671L781.42 288.392ZM794.22 318.6H793.22C793.22 330.978 789.049 341.301 780.713 349.637L781.42 350.344L782.127 351.051C790.857 342.321 795.22 331.481 795.22 318.6H794.22ZM781.42 350.344L780.713 349.637C772.715 357.635 762.903 361.632 751.212 361.632V362.632V363.632C763.415 363.632 773.741 359.437 782.127 351.051L781.42 350.344Z" fill="#3F3E3A" fill-opacity="0.35" mask="url(#path-1-inside-1_2358_27)"/>
</svg>
