<svg width="1165" height="396" viewBox="0 0 1165 396" fill="none" xmlns="http://www.w3.org/2000/svg">
<mask id="path-1-inside-1_2358_28" fill="white">
<path d="M163.248 133.12V215.552H153.52C153.52 213.163 153.008 210.432 151.984 207.36C150.96 204.288 149.595 202.581 147.888 202.24H144.304C133.723 202.24 122.971 205.312 112.048 211.456C101.467 217.259 92.592 225.109 85.424 235.008C78.5973 244.565 75.184 254.805 75.184 265.728L75.184 368.64C75.184 370.347 76.3787 371.712 78.768 372.736C81.4987 373.76 84.0587 374.272 86.448 374.272V384H0.432001L0.432001 374.272C2.82133 374.272 5.21067 373.76 7.6 372.736C10.3307 371.712 11.696 370.347 11.696 368.64L11.696 163.84C11.696 162.133 10.3307 160.768 7.6 159.744C5.21067 158.72 2.82133 158.208 0.432001 158.208V148.48H75.184V170.496C84.4 161.963 95.4933 155.136 108.464 150.016C121.435 144.896 134.405 142.336 147.376 142.336H147.888H148.4C150.107 142.336 151.301 141.312 151.984 139.264C153.008 137.216 153.52 135.168 153.52 133.12H163.248ZM332.28 390.144C307.021 390.144 284.664 384.853 265.208 374.272C246.093 363.349 231.075 348.501 220.152 329.728C209.571 310.955 204.28 289.792 204.28 266.24C204.28 243.029 209.571 221.867 220.152 202.752C231.075 183.637 246.264 168.619 265.72 157.696C285.176 146.432 307.363 140.8 332.28 140.8C356.173 140.8 377.848 146.261 397.304 157.184C416.76 167.765 432.12 182.613 443.384 201.728C454.648 220.501 460.28 242.005 460.28 266.24C460.28 287.403 455.16 307.541 444.92 326.656C435.021 345.429 420.344 360.789 400.888 372.736C381.432 384.341 358.563 390.144 332.28 390.144ZM332.28 331.264C352.419 331.264 368.632 325.461 380.92 313.856C393.549 301.909 399.864 286.549 399.864 267.776C399.864 248.32 393.549 232.277 380.92 219.648C368.632 207.019 352.419 200.704 332.28 200.704C313.507 200.704 297.805 207.019 285.176 219.648C272.547 231.936 266.232 247.467 266.232 266.24C266.232 286.037 272.547 301.909 285.176 313.856C297.805 325.461 313.507 331.264 332.28 331.264ZM529.048 15.36C529.048 13.6533 527.683 12.288 524.952 11.264C522.563 10.24 520.003 9.728 517.272 9.728V-3.05176e-05L607.384 -3.05176e-05V9.728C604.653 9.728 601.923 10.24 599.192 11.264C596.803 12.288 595.608 13.6533 595.608 15.36V368.64C595.608 370.347 596.803 371.712 599.192 372.736C601.923 373.76 604.653 374.272 607.384 374.272V384H517.272V374.272C520.003 374.272 522.563 373.76 524.952 372.736C527.683 371.712 529.048 370.347 529.048 368.64V15.36ZM788.928 137.728C815.211 137.728 837.909 143.531 857.024 155.136C876.139 166.4 890.645 181.76 900.544 201.216C910.443 220.672 915.392 242.176 915.392 265.728C915.392 272.896 914.88 280.064 913.856 287.232H726.464C727.829 303.616 734.997 316.416 747.968 325.632C760.939 334.848 776.469 339.456 794.56 339.456C806.848 339.456 817.088 337.749 825.28 334.336C833.813 330.923 841.323 325.803 847.808 318.976C848.491 317.611 848.832 316.757 848.832 316.416C848.832 315.051 848.32 313.685 847.296 312.32C846.272 310.613 845.248 309.419 844.224 308.736L850.368 301.056L907.2 345.6L901.568 353.28C896.448 350.208 892.864 349.867 890.816 352.256C866.923 380.928 834.837 395.264 794.56 395.264C768.619 395.264 745.749 389.632 725.952 378.368C706.155 366.763 690.795 351.403 679.872 332.288C669.291 312.832 664 291.328 664 267.776C664 242.859 669.291 220.501 679.872 200.704C690.453 180.907 705.131 165.547 723.904 154.624C743.019 143.36 764.693 137.728 788.928 137.728ZM853.952 239.616C852.587 225.621 845.419 213.845 832.448 204.288C819.819 194.389 805.483 189.44 789.44 189.44C773.397 189.44 759.573 194.389 747.968 204.288C736.363 213.845 729.365 225.621 726.976 239.616H853.952ZM1068.82 391.68C1051.41 391.68 1034.52 388.096 1018.13 380.928C1002.09 373.76 985.876 363.52 969.492 350.208C968.809 349.525 967.956 349.184 966.932 349.184C964.201 349.184 961.3 350.72 958.228 353.792L951.06 347.648L1002.26 289.28L1009.43 295.936C1008.06 297.643 1006.87 299.691 1005.84 302.08C1005.16 304.469 1005.5 306.347 1006.87 307.712C1018.13 317.952 1028.54 325.632 1038.1 330.752C1048 335.531 1058.24 337.92 1068.82 337.92C1095.1 337.92 1108.24 329.216 1108.24 311.808C1108.24 303.957 1104.15 297.984 1095.96 293.888C1088.11 289.451 1074.79 284.672 1056.02 279.552C1031.79 273.067 1014.21 264.704 1003.28 254.464C992.361 243.883 986.9 229.547 986.9 211.456C986.9 189.952 993.897 172.544 1007.89 159.232C1021.89 145.579 1041 138.752 1065.24 138.752C1077.52 138.752 1088.62 140.629 1098.52 144.384C1108.41 148.139 1120.36 154.795 1134.36 164.352C1134.7 164.693 1135.38 164.864 1136.4 164.864C1138.11 164.864 1139.82 164.352 1141.52 163.328C1143.23 162.304 1144.43 161.28 1145.11 160.256L1152.79 166.912L1106.71 219.136L1099.54 212.992C1100.91 211.627 1101.76 209.92 1102.1 207.872C1102.78 205.483 1102.44 203.605 1101.08 202.24C1094.93 197.461 1088.96 193.877 1083.16 191.488C1077.69 189.099 1071.55 187.904 1064.72 187.904C1057.56 187.904 1051.92 189.269 1047.83 192C1043.73 194.731 1041.68 198.827 1041.68 204.288C1041.68 208.725 1042.88 212.309 1045.27 215.04C1047.66 217.771 1051.92 220.501 1058.07 223.232C1064.55 225.963 1074.28 229.376 1087.25 233.472C1111.15 240.64 1129.92 250.709 1143.57 263.68C1157.23 276.309 1164.05 292.011 1164.05 310.784C1164.05 338.432 1155.35 358.912 1137.94 372.224C1120.53 385.195 1097.49 391.68 1068.82 391.68Z"/>
</mask>
<path d="M163.248 133.12H164.248V132.12H163.248V133.12ZM163.248 215.552V216.552H164.248V215.552H163.248ZM153.52 215.552H152.52V216.552H153.52V215.552ZM151.984 207.36L152.933 207.044L151.984 207.36ZM147.888 202.24L148.084 201.259L147.987 201.24H147.888V202.24ZM112.048 211.456L112.529 212.333L112.538 212.328L112.048 211.456ZM85.424 235.008L84.614 234.421L84.6103 234.427L85.424 235.008ZM78.768 372.736L78.3741 373.655L78.3953 373.664L78.4169 373.672L78.768 372.736ZM86.448 374.272H87.448V373.272H86.448V374.272ZM86.448 384V385H87.448V384H86.448ZM0.432001 384H-0.567999V385H0.432001V384ZM0.432001 374.272V373.272H-0.567999V374.272H0.432001ZM7.6 372.736L7.24888 371.8L7.22728 371.808L7.20608 371.817L7.6 372.736ZM7.6 159.744L7.20608 160.663L7.22728 160.672L7.24888 160.68L7.6 159.744ZM0.432001 158.208H-0.567999V159.208H0.432001V158.208ZM0.432001 148.48V147.48H-0.567999V148.48H0.432001ZM75.184 148.48H76.184V147.48H75.184V148.48ZM75.184 170.496H74.184V172.785L75.8634 171.23L75.184 170.496ZM108.464 150.016L108.831 150.946L108.464 150.016ZM151.984 139.264L151.09 138.817L151.058 138.88L151.035 138.948L151.984 139.264ZM153.52 133.12V132.12H152.52V133.12H153.52ZM163.248 133.12H162.248V215.552H163.248H164.248V133.12H163.248ZM163.248 215.552V214.552H153.52V215.552V216.552H163.248V215.552ZM153.52 215.552H154.52C154.52 213.025 153.979 210.184 152.933 207.044L151.984 207.36L151.035 207.676C152.037 210.68 152.52 213.301 152.52 215.552H153.52ZM151.984 207.36L152.933 207.044C151.892 203.92 150.364 201.715 148.084 201.259L147.888 202.24L147.692 203.221C148.826 203.447 150.028 204.656 151.035 207.676L151.984 207.36ZM147.888 202.24V201.24H144.304V202.24V203.24H147.888V202.24ZM144.304 202.24V201.24C133.522 201.24 122.602 204.372 111.558 210.584L112.048 211.456L112.538 212.328C123.339 206.252 133.924 203.24 144.304 203.24V202.24ZM112.048 211.456L111.567 210.579C100.854 216.454 91.8678 224.404 84.6141 234.421L85.424 235.008L86.2339 235.594C93.3162 225.814 102.079 218.063 112.529 212.333L112.048 211.456ZM85.424 235.008L84.6103 234.427C77.6721 244.14 74.184 254.581 74.184 265.728H75.184H76.184C76.184 255.03 79.5226 244.99 86.2377 235.589L85.424 235.008ZM75.184 265.728H74.184L74.184 368.64H75.184H76.184L76.184 265.728H75.184ZM75.184 368.64H74.184C74.184 370.941 75.8364 372.568 78.3741 373.655L78.768 372.736L79.1619 371.817C76.9209 370.856 76.184 369.753 76.184 368.64H75.184ZM78.768 372.736L78.4169 373.672C81.2358 374.729 83.9156 375.272 86.448 375.272V374.272V373.272C84.2018 373.272 81.7615 372.791 79.1191 371.8L78.768 372.736ZM86.448 374.272H85.448V384H86.448H87.448V374.272H86.448ZM86.448 384V383H0.432001V384V385H86.448V384ZM0.432001 384H1.432L1.432 374.272H0.432001H-0.567999L-0.567999 384H0.432001ZM0.432001 374.272V375.272C2.96828 375.272 5.49116 374.728 7.99392 373.655L7.6 372.736L7.20608 371.817C4.93018 372.792 2.67439 373.272 0.432001 373.272V374.272ZM7.6 372.736L7.95112 373.672C10.7659 372.617 12.696 371.015 12.696 368.64H11.696H10.696C10.696 369.678 9.89542 370.807 7.24888 371.8L7.6 372.736ZM11.696 368.64H12.696L12.696 163.84H11.696H10.696L10.696 368.64H11.696ZM11.696 163.84H12.696C12.696 161.465 10.7659 159.863 7.95112 158.808L7.6 159.744L7.24888 160.68C9.89542 161.673 10.696 162.802 10.696 163.84H11.696ZM7.6 159.744L7.99392 158.825C5.49116 157.752 2.96828 157.208 0.432001 157.208V158.208V159.208C2.67439 159.208 4.93018 159.688 7.20608 160.663L7.6 159.744ZM0.432001 158.208H1.432V148.48H0.432001H-0.567999V158.208H0.432001ZM0.432001 148.48V149.48H75.184V148.48V147.48H0.432001V148.48ZM75.184 148.48H74.184V170.496H75.184H76.184V148.48H75.184ZM75.184 170.496L75.8634 171.23C84.9789 162.789 95.9632 156.026 108.831 150.946L108.464 150.016L108.097 149.086C95.0235 154.246 83.8211 161.136 74.5046 169.762L75.184 170.496ZM108.464 150.016L108.831 150.946C121.694 145.869 134.54 143.336 147.376 143.336V142.336V141.336C134.27 141.336 121.176 143.923 108.097 149.086L108.464 150.016ZM147.376 142.336V143.336H147.888V142.336V141.336H147.376V142.336ZM147.888 142.336V143.336H148.4V142.336V141.336H147.888V142.336ZM148.4 142.336V143.336C149.47 143.336 150.432 143.008 151.227 142.327C152.004 141.661 152.555 140.715 152.933 139.58L151.984 139.264L151.035 138.948C150.731 139.861 150.343 140.451 149.925 140.809C149.525 141.152 149.036 141.336 148.4 141.336V142.336ZM151.984 139.264L152.878 139.711C153.964 137.541 154.52 135.341 154.52 133.12H153.52H152.52C152.52 134.995 152.052 136.891 151.09 138.817L151.984 139.264ZM153.52 133.12V134.12H163.248V133.12V132.12H153.52V133.12ZM265.208 374.272L264.712 375.14L264.721 375.145L264.73 375.15L265.208 374.272ZM220.152 329.728L219.281 330.219L219.288 330.231L220.152 329.728ZM220.152 202.752L219.284 202.256L219.277 202.268L220.152 202.752ZM265.72 157.696L266.21 158.568L266.221 158.561L265.72 157.696ZM397.304 157.184L396.814 158.056L396.826 158.062L397.304 157.184ZM443.384 201.728L442.522 202.236L442.527 202.242L443.384 201.728ZM444.92 326.656L444.039 326.184L444.035 326.19L444.92 326.656ZM400.888 372.736L401.4 373.595L401.411 373.588L400.888 372.736ZM380.92 313.856L381.607 314.583L381.607 314.582L380.92 313.856ZM380.92 219.648L380.203 220.345L380.213 220.355L380.92 219.648ZM285.176 219.648L285.873 220.365L285.883 220.355L285.176 219.648ZM285.176 313.856L284.489 314.582L284.494 314.587L284.499 314.592L285.176 313.856ZM332.28 390.144V389.144C307.165 389.144 284.976 383.884 265.686 373.394L265.208 374.272L264.73 375.15C284.352 385.822 306.878 391.144 332.28 391.144V390.144ZM265.208 374.272L265.704 373.404C246.74 362.567 231.849 347.844 221.016 329.225L220.152 329.728L219.288 330.231C230.3 349.158 245.447 364.132 264.712 375.14L265.208 374.272ZM220.152 329.728L221.023 329.237C210.534 310.627 205.28 289.636 205.28 266.24H204.28H203.28C203.28 289.948 208.607 311.282 219.281 330.219L220.152 329.728ZM204.28 266.24H205.28C205.28 243.188 210.533 222.193 221.027 203.236L220.152 202.752L219.277 202.268C208.609 221.54 203.28 242.871 203.28 266.24H204.28ZM220.152 202.752L221.02 203.248C231.852 184.293 246.909 169.403 266.21 158.568L265.72 157.696L265.23 156.824C245.619 167.834 230.298 182.982 219.284 202.256L220.152 202.752ZM265.72 157.696L266.221 158.561C285.509 147.395 307.519 141.8 332.28 141.8V140.8V139.8C307.206 139.8 284.843 145.469 265.219 156.831L265.72 157.696ZM332.28 140.8V141.8C356.014 141.8 377.519 147.223 396.814 158.056L397.304 157.184L397.794 156.312C378.177 145.299 356.332 139.8 332.28 139.8V140.8ZM397.304 157.184L396.826 158.062C416.123 168.557 431.35 183.277 442.522 202.236L443.384 201.728L444.246 201.22C432.89 181.95 417.397 166.974 397.782 156.306L397.304 157.184ZM443.384 201.728L442.527 202.242C453.688 220.844 459.28 242.167 459.28 266.24H460.28H461.28C461.28 241.844 455.609 220.158 444.242 201.214L443.384 201.728ZM460.28 266.24H459.28C459.28 287.234 454.203 307.211 444.039 326.184L444.92 326.656L445.801 327.128C456.117 307.872 461.28 287.572 461.28 266.24H460.28ZM444.92 326.656L444.035 326.19C434.227 344.792 419.68 360.024 400.365 371.884L400.888 372.736L401.411 373.588C421.008 361.555 435.816 346.066 445.805 327.122L444.92 326.656ZM400.888 372.736L400.376 371.877C381.098 383.376 358.412 389.144 332.28 389.144V390.144V391.144C358.714 391.144 381.766 385.306 401.4 373.595L400.888 372.736ZM332.28 331.264V332.264C352.622 332.264 369.098 326.396 381.607 314.583L380.92 313.856L380.233 313.129C368.166 324.526 352.215 330.264 332.28 330.264V331.264ZM380.92 313.856L381.607 314.582C394.453 302.431 400.864 286.8 400.864 267.776H399.864H398.864C398.864 286.299 392.645 301.388 380.233 313.13L380.92 313.856ZM399.864 267.776H400.864C400.864 248.081 394.462 231.775 381.627 218.941L380.92 219.648L380.213 220.355C392.637 232.779 398.864 248.559 398.864 267.776H399.864ZM380.92 219.648L381.637 218.951C369.133 206.1 352.647 199.704 332.28 199.704V200.704V201.704C352.191 201.704 368.131 207.938 380.203 220.345L380.92 219.648ZM332.28 200.704V199.704C313.257 199.704 297.296 206.114 284.469 218.941L285.176 219.648L285.883 220.355C298.315 207.924 313.757 201.704 332.28 201.704V200.704ZM285.176 219.648L284.479 218.931C271.642 231.421 265.232 247.216 265.232 266.24H266.232H267.232C267.232 247.717 273.451 232.451 285.873 220.365L285.176 219.648ZM266.232 266.24H265.232C265.232 286.27 271.631 302.42 284.489 314.582L285.176 313.856L285.863 313.13C273.462 301.399 267.232 285.804 267.232 266.24H266.232ZM285.176 313.856L284.499 314.592C297.331 326.384 313.282 332.264 332.28 332.264V331.264V330.264C313.732 330.264 298.279 324.539 285.853 313.12L285.176 313.856ZM524.952 11.264L524.558 12.1831L524.579 12.1922L524.601 12.2003L524.952 11.264ZM517.272 9.728H516.272V10.728H517.272V9.728ZM517.272 -3.05176e-05V-1.00003L516.272 -1.00003V-3.05176e-05L517.272 -3.05176e-05ZM607.384 -3.05176e-05L608.384 -3.05176e-05V-1.00003L607.384 -1.00003V-3.05176e-05ZM607.384 9.728V10.728H608.384V9.728H607.384ZM599.192 11.264L598.841 10.3276L598.819 10.3357L598.798 10.3448L599.192 11.264ZM599.192 372.736L598.798 373.655L598.819 373.664L598.841 373.672L599.192 372.736ZM607.384 374.272H608.384V373.272H607.384V374.272ZM607.384 384V385H608.384V384H607.384ZM517.272 384H516.272V385H517.272V384ZM517.272 374.272V373.272H516.272V374.272H517.272ZM524.952 372.736L524.601 371.8L524.579 371.808L524.558 371.817L524.952 372.736ZM529.048 15.36H530.048C530.048 12.9846 528.118 11.3832 525.303 10.3276L524.952 11.264L524.601 12.2003C527.247 13.1928 528.048 14.322 528.048 15.36H529.048ZM524.952 11.264L525.346 10.3448C522.826 9.26482 520.131 8.728 517.272 8.728V9.728V10.728C519.874 10.728 522.299 11.2152 524.558 12.1831L524.952 11.264ZM517.272 9.728H518.272V-3.05176e-05L517.272 -3.05176e-05L516.272 -3.05176e-05V9.728H517.272ZM517.272 -3.05176e-05V0.999969L607.384 0.999969V-3.05176e-05V-1.00003L517.272 -1.00003V-3.05176e-05ZM607.384 -3.05176e-05L606.384 -3.05176e-05V9.728H607.384H608.384V-3.05176e-05L607.384 -3.05176e-05ZM607.384 9.728V8.728C604.526 8.728 601.676 9.26444 598.841 10.3276L599.192 11.264L599.543 12.2003C602.169 11.2155 604.781 10.728 607.384 10.728V9.728ZM599.192 11.264L598.798 10.3448C596.26 11.4324 594.608 13.0593 594.608 15.36H595.608H596.608C596.608 14.2474 597.345 13.1436 599.586 12.1831L599.192 11.264ZM595.608 15.36H594.608V368.64H595.608H596.608V15.36H595.608ZM595.608 368.64H594.608C594.608 370.941 596.26 372.568 598.798 373.655L599.192 372.736L599.586 371.817C597.345 370.856 596.608 369.753 596.608 368.64H595.608ZM599.192 372.736L598.841 373.672C601.676 374.736 604.526 375.272 607.384 375.272V374.272V373.272C604.781 373.272 602.169 372.784 599.543 371.8L599.192 372.736ZM607.384 374.272H606.384V384H607.384H608.384V374.272H607.384ZM607.384 384V383H517.272V384V385H607.384V384ZM517.272 384H518.272V374.272H517.272H516.272V384H517.272ZM517.272 374.272V375.272C520.131 375.272 522.826 374.735 525.346 373.655L524.952 372.736L524.558 371.817C522.299 372.785 519.874 373.272 517.272 373.272V374.272ZM524.952 372.736L525.303 373.672C528.118 372.617 530.048 371.015 530.048 368.64H529.048H528.048C528.048 369.678 527.247 370.807 524.601 371.8L524.952 372.736ZM529.048 368.64H530.048V15.36H529.048H528.048V368.64H529.048ZM857.024 155.136L856.505 155.991L856.516 155.998L857.024 155.136ZM900.544 201.216L899.653 201.669L900.544 201.216ZM913.856 287.232V288.232H914.723L914.846 287.373L913.856 287.232ZM726.464 287.232V286.232H725.377L725.467 287.315L726.464 287.232ZM747.968 325.632L748.547 324.817L747.968 325.632ZM825.28 334.336L824.909 333.408L824.902 333.41L824.895 333.413L825.28 334.336ZM847.808 318.976L848.533 319.665L848.636 319.557L848.702 319.423L847.808 318.976ZM847.296 312.32L846.439 312.835L846.465 312.879L846.496 312.92L847.296 312.32ZM844.224 308.736L843.443 308.111L842.762 308.963L843.669 309.568L844.224 308.736ZM850.368 301.056L850.985 300.269L850.206 299.658L849.587 300.431L850.368 301.056ZM907.2 345.6L908.006 346.191L908.579 345.41L907.817 344.813L907.2 345.6ZM901.568 353.28L901.054 354.137L901.835 354.607L902.374 353.871L901.568 353.28ZM890.816 352.256L890.057 351.605L890.048 351.616L890.816 352.256ZM725.952 378.368L725.446 379.231L725.458 379.237L725.952 378.368ZM679.872 332.288L678.994 332.766L678.999 332.775L679.004 332.784L679.872 332.288ZM679.872 200.704L678.99 200.233L679.872 200.704ZM723.904 154.624L724.407 155.488L724.412 155.486L723.904 154.624ZM853.952 239.616V240.616H855.054L854.947 239.519L853.952 239.616ZM832.448 204.288L831.831 205.075L831.843 205.084L831.855 205.093L832.448 204.288ZM747.968 204.288L748.604 205.06L748.61 205.054L748.617 205.049L747.968 204.288ZM726.976 239.616L725.99 239.448L725.791 240.616H726.976V239.616ZM788.928 137.728V138.728C815.06 138.728 837.572 144.496 856.505 155.991L857.024 155.136L857.543 154.281C838.246 142.565 815.361 136.728 788.928 136.728V137.728ZM857.024 155.136L856.516 155.998C875.47 167.166 889.842 182.386 899.653 201.669L900.544 201.216L901.435 200.763C891.449 181.134 876.808 165.633 857.532 154.274L857.024 155.136ZM900.544 201.216L899.653 201.669C909.474 220.974 914.392 242.321 914.392 265.728H915.392H916.392C916.392 242.031 911.411 220.37 901.435 200.763L900.544 201.216ZM915.392 265.728H914.392C914.392 272.848 913.883 279.969 912.866 287.091L913.856 287.232L914.846 287.373C915.877 280.159 916.392 272.944 916.392 265.728H915.392ZM913.856 287.232V286.232H726.464V287.232V288.232H913.856V287.232ZM726.464 287.232L725.467 287.315C726.856 303.981 734.169 317.054 747.389 326.447L747.968 325.632L748.547 324.817C735.826 315.778 728.802 303.251 727.461 287.149L726.464 287.232ZM747.968 325.632L747.389 326.447C760.551 335.799 776.291 340.456 794.56 340.456V339.456V338.456C776.647 338.456 761.326 333.897 748.547 324.817L747.968 325.632ZM794.56 339.456V340.456C806.933 340.456 817.314 338.739 825.665 335.259L825.28 334.336L824.895 333.413C816.862 336.76 806.763 338.456 794.56 338.456V339.456ZM825.28 334.336L825.651 335.264C834.322 331.796 841.951 326.593 848.533 319.665L847.808 318.976L847.083 318.287C840.694 325.012 833.305 330.049 824.909 333.408L825.28 334.336ZM847.808 318.976L848.702 319.423C849.049 318.73 849.319 318.147 849.505 317.683C849.597 317.452 849.674 317.236 849.73 317.043C849.781 316.864 849.832 316.641 849.832 316.416H848.832H847.832C847.832 316.362 847.841 316.373 847.807 316.493C847.776 316.598 847.726 316.745 847.648 316.941C847.492 317.33 847.249 317.857 846.914 318.529L847.808 318.976ZM848.832 316.416H849.832C849.832 314.785 849.217 313.215 848.096 311.72L847.296 312.32L846.496 312.92C847.423 314.156 847.832 315.316 847.832 316.416H848.832ZM847.296 312.32L848.154 311.806C847.095 310.041 845.979 308.704 844.779 307.904L844.224 308.736L843.669 309.568C844.517 310.133 845.449 311.185 846.439 312.835L847.296 312.32ZM844.224 308.736L845.005 309.361L851.149 301.681L850.368 301.056L849.587 300.431L843.443 308.111L844.224 308.736ZM850.368 301.056L849.751 301.843L906.583 346.387L907.2 345.6L907.817 344.813L850.985 300.269L850.368 301.056ZM907.2 345.6L906.394 345.009L900.762 352.689L901.568 353.28L902.374 353.871L908.006 346.191L907.2 345.6ZM901.568 353.28L902.083 352.423C899.468 350.854 897.142 349.916 895.135 349.724C893.073 349.528 891.325 350.125 890.057 351.605L890.816 352.256L891.575 352.907C892.355 351.997 893.423 351.571 894.945 351.715C896.522 351.866 898.548 352.634 901.054 354.137L901.568 353.28ZM890.816 352.256L890.048 351.616C866.361 380.04 834.567 394.264 794.56 394.264V395.264V396.264C835.107 396.264 867.484 381.816 891.584 352.896L890.816 352.256ZM794.56 395.264V394.264C768.768 394.264 746.073 388.666 726.447 377.499L725.952 378.368L725.458 379.237C745.425 390.598 768.47 396.264 794.56 396.264V395.264ZM725.952 378.368L726.458 377.505C706.805 365.984 691.572 350.748 680.74 331.792L679.872 332.288L679.004 332.784C690.017 352.057 705.505 367.541 725.446 379.231L725.952 378.368ZM679.872 332.288L680.75 331.81C670.254 312.51 665 291.172 665 267.776H664H663C663 291.484 668.327 313.154 678.994 332.766L679.872 332.288ZM664 267.776H665C665 243.005 670.258 220.812 680.754 201.175L679.872 200.704L678.99 200.233C668.323 220.19 663 242.713 663 267.776H664ZM679.872 200.704L680.754 201.175C691.251 181.536 705.799 166.314 724.407 155.488L723.904 154.624L723.401 153.76C704.462 164.779 689.656 180.277 678.99 200.233L679.872 200.704ZM723.904 154.624L724.412 155.486C743.359 144.32 764.855 138.728 788.928 138.728V137.728V136.728C764.532 136.728 742.679 142.4 723.396 153.762L723.904 154.624ZM853.952 239.616L854.947 239.519C853.55 225.199 846.203 213.181 833.041 203.483L832.448 204.288L831.855 205.093C844.634 214.509 851.623 226.043 852.957 239.713L853.952 239.616ZM832.448 204.288L833.065 203.501C820.26 193.464 805.706 188.44 789.44 188.44V189.44V190.44C805.259 190.44 819.378 195.314 831.831 205.075L832.448 204.288ZM789.44 189.44V188.44C773.173 188.44 759.115 193.466 747.319 203.527L747.968 204.288L748.617 205.049C760.031 195.313 773.622 190.44 789.44 190.44V189.44ZM747.968 204.288L747.332 203.516C735.553 213.216 728.423 225.202 725.99 239.448L726.976 239.616L727.962 239.784C730.308 226.041 737.172 214.474 748.604 205.06L747.968 204.288ZM726.976 239.616V240.616H853.952V239.616V238.616H726.976V239.616ZM1018.13 380.928L1017.72 381.841L1017.73 381.844L1018.13 380.928ZM969.492 350.208L968.785 350.915L968.821 350.952L968.861 350.984L969.492 350.208ZM958.228 353.792L957.577 354.551L958.28 355.154L958.935 354.499L958.228 353.792ZM951.06 347.648L950.308 346.989L949.641 347.749L950.409 348.407L951.06 347.648ZM1002.26 289.28L1002.94 288.547L1002.19 287.847L1001.51 288.621L1002.26 289.28ZM1009.43 295.936L1010.21 296.561L1010.79 295.835L1010.11 295.203L1009.43 295.936ZM1005.84 302.08L1004.92 301.686L1004.9 301.744L1004.88 301.805L1005.84 302.08ZM1006.87 307.712L1006.16 308.419L1006.18 308.436L1006.2 308.452L1006.87 307.712ZM1038.1 330.752L1037.63 331.633L1037.65 331.643L1037.67 331.653L1038.1 330.752ZM1095.96 293.888L1095.46 294.759L1095.49 294.771L1095.51 294.782L1095.96 293.888ZM1056.02 279.552L1056.28 278.587L1056.28 278.586L1056.02 279.552ZM1003.28 254.464L1002.59 255.182L1002.59 255.188L1002.6 255.194L1003.28 254.464ZM1007.89 159.232L1008.58 159.957L1008.59 159.948L1007.89 159.232ZM1098.52 144.384L1098.16 145.319L1098.52 144.384ZM1134.36 164.352L1135.06 163.645L1135 163.579L1134.92 163.526L1134.36 164.352ZM1141.52 163.328L1142.04 164.185L1141.52 163.328ZM1145.11 160.256L1145.76 159.5L1144.91 158.757L1144.28 159.701L1145.11 160.256ZM1152.79 166.912L1153.54 167.574L1154.21 166.817L1153.44 166.156L1152.79 166.912ZM1106.71 219.136L1106.06 219.895L1106.81 220.537L1107.46 219.798L1106.71 219.136ZM1099.54 212.992L1098.83 212.285L1098.07 213.048L1098.89 213.751L1099.54 212.992ZM1102.1 207.872L1101.14 207.597L1101.12 207.652L1101.11 207.708L1102.1 207.872ZM1101.08 202.24L1101.78 201.533L1101.74 201.489L1101.69 201.451L1101.08 202.24ZM1083.16 191.488L1082.76 192.404L1082.77 192.409L1082.78 192.413L1083.16 191.488ZM1047.83 192L1047.27 191.168L1047.83 192ZM1045.27 215.04L1044.52 215.699L1045.27 215.04ZM1058.07 223.232L1057.66 224.146L1057.67 224.15L1057.68 224.154L1058.07 223.232ZM1087.25 233.472L1086.95 234.426L1086.96 234.428L1086.96 234.43L1087.25 233.472ZM1143.57 263.68L1142.88 264.405L1142.89 264.414L1143.57 263.68ZM1137.94 372.224L1138.54 373.026L1138.55 373.018L1137.94 372.224ZM1068.82 391.68V390.68C1051.55 390.68 1034.79 387.126 1018.53 380.012L1018.13 380.928L1017.73 381.844C1034.24 389.066 1051.27 392.68 1068.82 392.68V391.68ZM1018.13 380.928L1018.54 380.015C1002.59 372.889 986.452 362.699 970.123 349.432L969.492 350.208L968.861 350.984C985.3 364.341 1001.59 374.631 1017.72 381.841L1018.13 380.928ZM969.492 350.208L970.199 349.501C969.317 348.618 968.203 348.184 966.932 348.184V349.184V350.184C967.709 350.184 968.302 350.432 968.785 350.915L969.492 350.208ZM966.932 349.184V348.184C963.816 348.184 960.674 349.932 957.521 353.085L958.228 353.792L958.935 354.499C961.927 351.508 964.587 350.184 966.932 350.184V349.184ZM958.228 353.792L958.879 353.033L951.711 346.889L951.06 347.648L950.409 348.407L957.577 354.551L958.228 353.792ZM951.06 347.648L951.812 348.307L1003.01 289.939L1002.26 289.28L1001.51 288.621L950.308 346.989L951.06 347.648ZM1002.26 289.28L1001.58 290.013L1008.75 296.669L1009.43 295.936L1010.11 295.203L1002.94 288.547L1002.26 289.28ZM1009.43 295.936L1008.65 295.311C1007.22 297.1 1005.98 299.229 1004.92 301.686L1005.84 302.08L1006.76 302.474C1007.76 300.152 1008.91 298.185 1010.21 296.561L1009.43 295.936ZM1005.84 302.08L1004.88 301.805C1004.13 304.427 1004.46 306.721 1006.16 308.419L1006.87 307.712L1007.58 307.005C1006.54 305.972 1006.19 304.511 1006.81 302.355L1005.84 302.08ZM1006.87 307.712L1006.2 308.452C1017.5 318.727 1027.98 326.463 1037.63 331.633L1038.1 330.752L1038.57 329.871C1029.11 324.801 1018.77 317.177 1007.54 306.972L1006.87 307.712ZM1038.1 330.752L1037.67 331.653C1047.69 336.494 1058.08 338.92 1068.82 338.92V337.92V336.92C1058.4 336.92 1048.3 334.567 1038.53 329.851L1038.1 330.752ZM1068.82 337.92V338.92C1082.04 338.92 1092.13 336.737 1098.94 332.226C1105.82 327.667 1109.24 320.806 1109.24 311.808H1108.24H1107.24C1107.24 320.218 1104.09 326.413 1097.84 330.558C1091.51 334.751 1081.88 336.92 1068.82 336.92V337.92ZM1108.24 311.808H1109.24C1109.24 307.699 1108.17 304.042 1106 300.874C1103.83 297.716 1100.61 295.098 1096.4 292.994L1095.96 293.888L1095.51 294.782C1099.49 296.774 1102.42 299.191 1104.35 302.006C1106.27 304.812 1107.24 308.067 1107.24 311.808H1108.24ZM1095.96 293.888L1096.45 293.017C1088.48 288.515 1075.07 283.71 1056.28 278.587L1056.02 279.552L1055.76 280.517C1074.52 285.634 1087.73 290.387 1095.46 294.759L1095.96 293.888ZM1056.02 279.552L1056.28 278.586C1032.11 272.118 1014.72 263.81 1003.97 253.734L1003.28 254.464L1002.6 255.194C1013.7 265.598 1031.46 274.015 1055.76 280.518L1056.02 279.552ZM1003.28 254.464L1003.98 253.746C993.288 243.388 987.9 229.331 987.9 211.456H986.9H985.9C985.9 229.762 991.435 244.377 1002.59 255.182L1003.28 254.464ZM986.9 211.456H987.9C987.9 190.192 994.809 173.057 1008.58 159.957L1007.89 159.232L1007.2 158.507C992.986 172.031 985.9 189.712 985.9 211.456H986.9ZM1007.89 159.232L1008.59 159.948C1022.36 146.518 1041.2 139.752 1065.24 139.752V138.752V137.752C1040.81 137.752 1021.42 144.639 1007.19 158.516L1007.89 159.232ZM1065.24 138.752V139.752C1077.42 139.752 1088.39 141.614 1098.16 145.319L1098.52 144.384L1098.87 143.449C1088.84 139.645 1077.63 137.752 1065.24 137.752V138.752ZM1098.52 144.384L1098.16 145.319C1107.96 149.034 1119.83 155.642 1133.79 165.178L1134.36 164.352L1134.92 163.526C1120.89 153.948 1108.87 147.243 1098.87 143.449L1098.52 144.384ZM1134.36 164.352L1133.65 165.059C1133.99 165.404 1134.44 165.596 1134.88 165.706C1135.33 165.818 1135.84 165.864 1136.4 165.864V164.864V163.864C1135.94 163.864 1135.6 163.825 1135.37 163.766C1135.13 163.706 1135.06 163.642 1135.06 163.645L1134.36 164.352ZM1136.4 164.864V165.864C1138.32 165.864 1140.2 165.287 1142.04 164.185L1141.52 163.328L1141.01 162.47C1139.43 163.417 1137.9 163.864 1136.4 163.864V164.864ZM1141.52 163.328L1142.04 164.185C1143.8 163.127 1145.14 162.011 1145.94 160.811L1145.11 160.256L1144.28 159.701C1143.71 160.549 1142.66 161.481 1141.01 162.47L1141.52 163.328ZM1145.11 160.256L1144.45 161.012L1152.13 167.668L1152.79 166.912L1153.44 166.156L1145.76 159.5L1145.11 160.256ZM1152.79 166.912L1152.04 166.25L1105.96 218.474L1106.71 219.136L1107.46 219.798L1153.54 167.574L1152.79 166.912ZM1106.71 219.136L1107.36 218.377L1100.19 212.233L1099.54 212.992L1098.89 213.751L1106.06 219.895L1106.71 219.136ZM1099.54 212.992L1100.25 213.699C1101.77 212.175 1102.71 210.274 1103.09 208.036L1102.1 207.872L1101.11 207.708C1100.8 209.566 1100.04 211.078 1098.83 212.285L1099.54 212.992ZM1102.1 207.872L1103.06 208.147C1103.81 205.525 1103.48 203.231 1101.78 201.533L1101.08 202.24L1100.37 202.947C1101.4 203.98 1101.75 205.441 1101.14 207.597L1102.1 207.872ZM1101.08 202.24L1101.69 201.451C1095.49 196.629 1089.44 192.994 1083.54 190.563L1083.16 191.488L1082.78 192.413C1088.48 194.761 1094.37 198.293 1100.46 203.029L1101.08 202.24ZM1083.16 191.488L1083.56 190.572C1077.95 188.12 1071.67 186.904 1064.72 186.904V187.904V188.904C1071.43 188.904 1077.44 190.078 1082.76 192.404L1083.16 191.488ZM1064.72 187.904V186.904C1057.44 186.904 1051.59 188.288 1047.27 191.168L1047.83 192L1048.38 192.832C1052.26 190.25 1057.67 188.904 1064.72 188.904V187.904ZM1047.83 192L1047.27 191.168C1042.87 194.107 1040.68 198.535 1040.68 204.288H1041.68H1042.68C1042.68 199.118 1044.6 195.355 1048.38 192.832L1047.83 192ZM1041.68 204.288H1040.68C1040.68 208.911 1041.93 212.747 1044.52 215.699L1045.27 215.04L1046.02 214.381C1043.82 211.871 1042.68 208.539 1042.68 204.288H1041.68ZM1045.27 215.04L1044.52 215.699C1047.05 218.596 1051.48 221.398 1057.66 224.146L1058.07 223.232L1058.47 222.318C1052.37 219.605 1048.26 216.945 1046.02 214.381L1045.27 215.04ZM1058.07 223.232L1057.68 224.154C1064.21 226.903 1073.97 230.327 1086.95 234.426L1087.25 233.472L1087.55 232.518C1074.59 228.425 1064.9 225.023 1058.46 222.31L1058.07 223.232ZM1087.25 233.472L1086.96 234.43C1110.75 241.567 1129.37 251.572 1142.88 264.405L1143.57 263.68L1144.26 262.955C1130.46 249.847 1111.54 239.713 1087.54 232.514L1087.25 233.472ZM1143.57 263.68L1142.89 264.414C1156.34 276.852 1163.05 292.286 1163.05 310.784H1164.05H1165.05C1165.05 291.735 1158.11 275.767 1144.25 262.946L1143.57 263.68ZM1164.05 310.784H1163.05C1163.05 338.21 1154.43 358.355 1137.33 371.43L1137.94 372.224L1138.55 373.018C1156.27 359.469 1165.05 338.654 1165.05 310.784H1164.05ZM1137.94 372.224L1137.34 371.422C1120.16 384.228 1097.35 390.68 1068.82 390.68V391.68V392.68C1097.64 392.68 1120.91 386.161 1138.54 373.026L1137.94 372.224Z" fill="#3F3E3A" fill-opacity="0.35" mask="url(#path-1-inside-1_2358_28)"/>
</svg>
